<svg xmlns="http://www.w3.org/2000/svg" width="401.333" height="401.333" version="1" viewBox="0 0 301 301"><path d="M133 1C67.1 9.8 17.1 56 2.8 121.5c-3.1 14.5-3.2 41.4 0 57 6.2 31.3 19.4 55.9 41.6 78.1 19 19 40.1 31.6 64.1 38.3 17.5 4.8 22.7 5.5 42 5.5 14.6-.1 19.9-.5 28-2.3 31.4-6.8 55-19.5 77-41.6 22.1-22 34.8-45.6 41.6-77 3-13.5 3.2-42.4.5-56-4-20.7-12.2-40.5-23.6-57.5-7.7-11.4-23.4-27.9-35-36.6-15.9-12-40.2-22.6-62-26.9C167.9.7 141.9-.2 133 1zm32.1 115.2c7.2 3.6 14.1 10.5 17.5 17.5 3.7 7.4 4.5 19.5 1.9 27.4-5.5 16.7-21.6 27.3-38.7 25.5-8.7-.9-16.8-4.9-22.7-11-5.9-6.4-8.5-11.3-10.2-19.3-3-14.3 4.3-30.6 16.9-38 7.6-4.5 11.1-5.3 20.7-5.1 7.5.3 10 .8 14.6 3zm89.7 43.5l26.2.6-.6 5.1c-3.3 29.1-17.1 57.6-37.8 78.1-18.1 18-40.7 30.1-66.6 35.6-14.6 3.1-37.1 3.1-51.7 0-17.9-3.7-34.8-11-48.9-20.7-8-5.6-22.1-18.9-28.5-26.9-14.1-17.6-24.5-42.7-27.3-66.3l-.7-5.2h76l1.2 4.2c.6 2.4 2.7 7.4 4.7 11.1 14.2 27.3 47 37.4 74.5 23 14.1-7.4 23.7-20.3 28.3-38.1.4-1.4 11.2-1.5 51.2-.5z"/><path d="M144.7 131c-4.5 1.4-9.5 5.8-11.8 10.2-1.6 3.2-2 5.4-1.7 9.9.8 11 8.6 18.2 19.4 18 6.3 0 10-1.7 14.1-6.5 10.8-12.2 3.5-30.4-12.9-32.1-2.4-.2-5.6 0-7.1.5z"/></svg>